<?xml version="1.0" encoding="UTF-8"?>
<svg id="_レイヤー_1" data-name="レイヤー_1" xmlns="http://www.w3.org/2000/svg" version="1.1" viewBox="0 0 80 80">
  <!-- Generator: Adobe Illustrator 30.2.1, SVG Export Plug-In . SVG Version: 2.1.1 Build 1)  -->
  <defs>
    <style>
      .st0 {
        fill: #fff;
      }

      .st1 {
        fill: #4d4d4d;
      }
    </style>
  </defs>
  <g>
    <path class="st0" d="M67.5778,55.7257c-.4313-3.2704-3.2232-5.7967-6.6113-5.7967-.743,0-1.4552.1265-2.1227.3505-.9347-4.3781-4.8233-7.662-9.4803-7.662-3.9327,0-7.316,2.3428-8.837,5.7076-.9972-.5927-2.1577-.9393-3.4019-.9393-3.6869,0-6.6757,2.9888-6.6757,6.6757,0,.5488.0735,1.0792.1984,1.5895h-.0394c-4.1258,0-7.4705,3.3446-7.4705,7.4705s3.3446,7.4705,7.4705,7.4705h35.9217c4.1258,0,7.4705-3.3446,7.4705-7.4705,0-3.7699-2.793-6.8859-6.4222-7.3958Z"/>
    <path class="st1" d="M66.5293,71.584H30.6079c-4.6665,0-8.4629-3.7969-8.4629-8.4629,0-4.2861,3.2041-7.8389,7.3433-8.3877-.021-.2266-.0317-.4502-.0317-.6719,0-4.2285,3.4399-7.668,7.668-7.668,1.0195,0,2.0293.207,2.9683.6035,1.8926-3.2939,5.4277-5.3721,9.2705-5.3721,4.6621,0,8.792,3.0752,10.1855,7.4463.4688-.0898.9434-.1348,1.418-.1348,3.582,0,6.6719,2.5068,7.4648,5.9385,3.7871.873,6.5605,4.2969,6.5605,8.2461,0,4.666-3.7969,8.4629-8.4629,8.4629ZM30.6475,56.6436c-3.6118,0-6.5181,2.9062-6.5181,6.4775s2.9062,6.4785,6.4785,6.4785h35.9214c3.5723,0,6.4785-2.9062,6.4785-6.4785,0-3.21-2.3936-5.9668-5.5674-6.4131l-.7471-.1045-.0986-.748c-.3711-2.8135-2.791-4.9346-5.6279-4.9346-.6064,0-1.2148.1006-1.8076.2988l-1.0537.3525-.2324-1.0859c-.8506-3.9844-4.4297-6.877-8.5098-6.877-3.4111,0-6.5254,2.0117-7.9326,5.125l-.4575,1.0107-.9536-.5674c-.8809-.5234-1.8818-.7998-2.895-.7998-3.1338,0-5.6836,2.5498-5.6836,5.6836,0,.4434.0557.8857.1704,1.3535l.3003,1.2285h-1.2642Z"/>
  </g>
  <g>
    <circle class="st1" cx="30.2103" cy="31.9317" r="11.9275"/>
    <path class="st1" d="M52.7665,33.414h-6.3344c-.8881,0-1.6077-.7201-1.6077-1.6082s.7196-1.6082,1.6077-1.6082h6.3344c.8881,0,1.6077.7201,1.6077,1.6082s-.7196,1.6082-1.6077,1.6082Z"/>
    <path class="st1" d="M41.7279,21.829c-.4113,0-.823-.1569-1.1369-.4708-.6278-.6287-.6278-1.646,0-2.2747l4.4793-4.4793c.6278-.6278,1.646-.6278,2.2738,0,.6278.6287.6278,1.646,0,2.2747l-4.4793,4.4793c-.3139.3139-.7256.4708-1.1369.4708Z"/>
    <path class="st1" d="M30.2103,16.9638c-.8881,0-1.6077-.7201-1.6077-1.6082v-6.3349c0-.8881.7196-1.6082,1.6077-1.6082s1.6077.7201,1.6077,1.6082v6.3349c0,.8881-.7196,1.6082-1.6077,1.6082Z"/>
    <path class="st1" d="M18.6257,21.6674c-.4113,0-.823-.1569-1.1369-.4708l-4.4793-4.4793c-.6278-.6287-.6278-1.646,0-2.2747.6278-.6278,1.646-.6278,2.2738,0l4.4793,4.4793c.6278.6287.6278,1.646,0,2.2747-.3139.3139-.7256.4708-1.1369.4708Z"/>
    <path class="st1" d="M13.7605,33.1851h-6.3344c-.8881,0-1.6077-.7201-1.6077-1.6082s.7196-1.6082,1.6077-1.6082h6.3344c.8881,0,1.6077.7201,1.6077,1.6082s-.7196,1.6082-1.6077,1.6082Z"/>
    <path class="st1" d="M13.9853,49.2494c-.4113,0-.823-.1569-1.1369-.4708-.6278-.6287-.6278-1.646,0-2.2747l4.4793-4.4793c.6278-.6278,1.646-.6278,2.2738,0,.6278.6287.6278,1.646,0,2.2747l-4.4793,4.4793c-.3139.3139-.7256.4708-1.1369.4708Z"/>
  </g>
</svg>